<svg xmlns="http://www.w3.org/2000/svg" xmlns:xlink="http://www.w3.org/1999/xlink" width="500" zoomAndPan="magnify" viewBox="0 0 375 374.999991" height="500" preserveAspectRatio="xMidYMid meet" version="1.0"><defs><g/><clipPath id="92b4e8f0d2"><path d="M 55.65625 55.65625 L 319.34375 55.65625 L 319.34375 319.34375 L 55.65625 319.34375 Z M 55.65625 55.65625 " clip-rule="nonzero"/></clipPath><clipPath id="50c60f9826"><path d="M 187.5 319.34375 C 152.300781 319.34375 119.152344 305.644531 94.28125 280.71875 C 69.355469 255.847656 55.65625 222.699219 55.65625 187.5 C 55.65625 152.300781 69.355469 119.152344 94.28125 94.28125 C 119.152344 69.355469 152.300781 55.65625 187.5 55.65625 C 222.699219 55.65625 255.847656 69.355469 280.71875 94.28125 C 305.644531 119.207031 319.34375 152.300781 319.34375 187.5 C 319.34375 222.699219 305.644531 255.847656 280.71875 280.71875 C 255.847656 305.644531 222.699219 319.34375 187.5 319.34375 Z M 187.5 63.558594 C 154.40625 63.558594 123.265625 76.46875 99.867188 99.867188 C 76.46875 123.265625 63.558594 154.40625 63.558594 187.5 C 63.558594 220.59375 76.46875 251.734375 99.867188 275.132812 C 123.265625 298.53125 154.40625 311.441406 187.5 311.441406 C 220.59375 311.441406 251.734375 298.53125 275.132812 275.132812 C 298.53125 251.734375 311.441406 220.59375 311.441406 187.5 C 311.441406 154.40625 298.53125 123.265625 275.132812 99.867188 C 251.734375 76.46875 220.59375 63.558594 187.5 63.558594 Z M 187.5 63.558594 " clip-rule="nonzero"/></clipPath></defs><g clip-path="url(#92b4e8f0d2)"><g clip-path="url(#50c60f9826)"><path fill="#000000" d="M 55.65625 55.65625 L 319.34375 55.65625 L 319.34375 319.34375 L 55.65625 319.34375 Z M 55.65625 55.65625 " fill-opacity="1" fill-rule="nonzero"/></g></g><g fill="#000000" fill-opacity="1"><g transform="translate(90.651933, 251.794092)"><g><path d="M 228.8125 33.703125 C 229.644531 33.703125 230.476562 33.703125 231.3125 33.703125 L 231.3125 35.78125 C 227.425781 36.332031 223.09375 36.609375 218.3125 36.609375 C 213.53125 36.609375 207.632812 35.566406 200.625 33.484375 C 193.625 31.410156 187.28125 27.53125 181.59375 21.84375 C 169.945312 10.195312 162.875 -4.914062 160.375 -23.5 L 147.6875 -116.078125 L 104.421875 -18.3125 C 100.535156 -9.84375 98.175781 -2.769531 97.34375 2.90625 L 95.265625 2.90625 L 41.390625 -114.203125 L 32.25 -10.8125 C 31.96875 -8.457031 32.691406 -6.378906 34.421875 -4.578125 C 36.160156 -2.773438 38.066406 -1.875 40.140625 -1.875 L 43.46875 -1.875 L 43.46875 0 L 3.125 0 L 3.125 -2.078125 L 6.453125 -2.078125 C 10.191406 -2.078125 13.484375 -3.21875 16.328125 -5.5 C 19.171875 -7.789062 20.941406 -10.8125 21.640625 -14.5625 L 34.734375 -128.140625 C 22.535156 -152.128906 7.90625 -164.125 -9.15625 -164.125 C -10.675781 -164.125 -12.269531 -164.054688 -13.9375 -163.921875 L -13.9375 -166 C -10.195312 -166.96875 -7.144531 -167.453125 -4.78125 -167.453125 C -2.425781 -167.453125 0.132812 -167.347656 2.90625 -167.140625 C 5.6875 -166.929688 8.945312 -166.269531 12.6875 -165.15625 C 16.4375 -164.050781 19.972656 -162.421875 23.296875 -160.265625 C 26.628906 -158.117188 29.539062 -155.898438 32.03125 -153.609375 C 34.53125 -151.328125 36.890625 -148.800781 39.109375 -146.03125 C 42.847656 -141.03125 45.828125 -136.242188 48.046875 -131.671875 L 98.1875 -23.09375 L 154.140625 -148.515625 L 156.015625 -148.515625 L 175.359375 -25.375 C 178.265625 -5.957031 184.535156 8.738281 194.171875 18.71875 C 203.816406 28.707031 215.363281 33.703125 228.8125 33.703125 Z M 228.8125 33.703125 "/></g></g></g></svg>